<svg xmlns="http://www.w3.org/2000/svg" xmlns:xlink="http://www.w3.org/1999/xlink" viewBox="0 0 398.13 196.4"><defs><style>.cls-1{fill:none;stroke-miterlimit:10;stroke-width:2px;stroke:url(#linear-gradient);}.cls-2{font-size:61.01px;font-family:Megrim, Megrim;}</style><linearGradient id="linear-gradient" y1="98.2" x2="398.13" y2="98.2" gradientUnits="userSpaceOnUse"><stop offset="0" stop-color="#1e4363"/><stop offset="0.05" stop-color="#395a76"/><stop offset="0.17" stop-color="#7f94a6"/><stop offset="0.28" stop-color="#b6c2cc"/><stop offset="0.38" stop-color="#dee3e8"/><stop offset="0.45" stop-color="#f6f8f9"/><stop offset="0.5" stop-color="#fff"/><stop offset="0.54" stop-color="#fffcf6"/><stop offset="0.62" stop-color="#fff4de"/><stop offset="0.71" stop-color="#ffe7b6"/><stop offset="0.81" stop-color="#ffd57f"/><stop offset="0.93" stop-color="#ffbe39"/><stop offset="1" stop-color="#ffb00d"/></linearGradient></defs><title>Pandora with Infinity</title><g id="Layer_2" data-name="Layer 2"><g id="Layer_1-2" data-name="Layer 1"><path class="cls-1" d="M368.65,29.44a97.35,97.35,0,0,0-137.53,0L199,61.51,167,29.44A97.2,97.2,0,1,0,167,167L199,134.89,231.12,167A97.25,97.25,0,0,0,368.65,29.44ZM130.1,130.1a45.09,45.09,0,1,1,0-63.8L162,98.2Zm201.69,0a45.11,45.11,0,0,1-63.81,0l-31.9-31.9L268,66.3a45.12,45.12,0,0,1,63.81,63.8Z"/><text class="cls-2" transform="translate(85.67 116.57)">Pandora</text></g></g></svg>